<mxfile host="app.diagrams.net" modified="2023-06-28T03:55:53.317Z" agent="Mozilla/5.0 (Macintosh; Intel Mac OS X 10_15_7) AppleWebKit/537.36 (KHTML, like Gecko) Chrome/114.0.0.0 Safari/537.36" etag="dgTNnKVb9P4lhNPj0mP0" version="21.3.8" type="github">
  <diagram name="Page-1" id="4kl74Nqn-nroLzoIiII5">
    <mxGraphModel dx="826" dy="488" grid="0" gridSize="10" guides="1" tooltips="1" connect="1" arrows="1" fold="1" page="1" pageScale="1" pageWidth="827" pageHeight="1169" math="0" shadow="0">
      <root>
        <mxCell id="0" />
        <mxCell id="1" parent="0" />
        <mxCell id="FX1jVykedZcyPQlozCbJ-4" value="US-EAST-2B" style="sketch=0;outlineConnect=0;html=1;whiteSpace=wrap;fontSize=12;fontStyle=0;shape=mxgraph.aws4.group;grIcon=mxgraph.aws4.group_availability_zone;strokeColor=#b85450;fillColor=#f8cecc;verticalAlign=top;align=left;spacingLeft=30;dashed=1;" vertex="1" parent="1">
          <mxGeometry x="427" y="96" width="246" height="253" as="geometry" />
        </mxCell>
        <mxCell id="FX1jVykedZcyPQlozCbJ-5" value="US-EAST-2C" style="sketch=0;outlineConnect=0;html=1;whiteSpace=wrap;fontSize=12;fontStyle=0;shape=mxgraph.aws4.group;grIcon=mxgraph.aws4.group_availability_zone;strokeColor=#82b366;fillColor=#d5e8d4;verticalAlign=top;align=left;spacingLeft=30;dashed=1;" vertex="1" parent="1">
          <mxGeometry x="264" y="397" width="246" height="253" as="geometry" />
        </mxCell>
        <mxCell id="FX1jVykedZcyPQlozCbJ-6" value="Pulsar Broker" style="whiteSpace=wrap;html=1;aspect=fixed;fillColor=#dae8fc;strokeColor=#6c8ebf;" vertex="1" parent="1">
          <mxGeometry x="452" y="130" width="80" height="80" as="geometry" />
        </mxCell>
        <mxCell id="FX1jVykedZcyPQlozCbJ-7" value="Pulsar Bookie" style="whiteSpace=wrap;html=1;aspect=fixed;fillColor=#dae8fc;strokeColor=#6c8ebf;" vertex="1" parent="1">
          <mxGeometry x="452" y="222" width="80" height="80" as="geometry" />
        </mxCell>
        <mxCell id="FX1jVykedZcyPQlozCbJ-8" value="Pulsar Bookie" style="whiteSpace=wrap;html=1;aspect=fixed;fillColor=#dae8fc;strokeColor=#6c8ebf;" vertex="1" parent="1">
          <mxGeometry x="286" y="531" width="80" height="80" as="geometry" />
        </mxCell>
        <mxCell id="FX1jVykedZcyPQlozCbJ-9" value="Pulsar Broker" style="whiteSpace=wrap;html=1;aspect=fixed;fillColor=#dae8fc;strokeColor=#6c8ebf;" vertex="1" parent="1">
          <mxGeometry x="286" y="434" width="80" height="80" as="geometry" />
        </mxCell>
        <mxCell id="FX1jVykedZcyPQlozCbJ-10" value="" style="swimlane;startSize=0;fillColor=#ffe6cc;strokeColor=#d79b00;" vertex="1" parent="1">
          <mxGeometry x="58" y="58" width="664" height="621" as="geometry" />
        </mxCell>
        <mxCell id="FX1jVykedZcyPQlozCbJ-15" value="" style="endArrow=classic;startArrow=classic;html=1;rounded=0;" edge="1" parent="FX1jVykedZcyPQlozCbJ-10" target="FX1jVykedZcyPQlozCbJ-4">
          <mxGeometry width="50" height="50" relative="1" as="geometry">
            <mxPoint x="284" y="196" as="sourcePoint" />
            <mxPoint x="334" y="146" as="targetPoint" />
          </mxGeometry>
        </mxCell>
        <mxCell id="FX1jVykedZcyPQlozCbJ-16" value="" style="endArrow=classic;startArrow=classic;html=1;rounded=0;" edge="1" parent="FX1jVykedZcyPQlozCbJ-10">
          <mxGeometry width="50" height="50" relative="1" as="geometry">
            <mxPoint x="382" y="341" as="sourcePoint" />
            <mxPoint x="432" y="291" as="targetPoint" />
          </mxGeometry>
        </mxCell>
        <mxCell id="FX1jVykedZcyPQlozCbJ-17" value="" style="endArrow=classic;startArrow=classic;html=1;rounded=0;" edge="1" parent="FX1jVykedZcyPQlozCbJ-10" target="FX1jVykedZcyPQlozCbJ-1">
          <mxGeometry width="50" height="50" relative="1" as="geometry">
            <mxPoint x="261" y="343" as="sourcePoint" />
            <mxPoint x="311" y="293" as="targetPoint" />
          </mxGeometry>
        </mxCell>
        <mxCell id="FX1jVykedZcyPQlozCbJ-22" value="Pulsar Bookie" style="whiteSpace=wrap;html=1;aspect=fixed;fillColor=#dae8fc;strokeColor=#6c8ebf;" vertex="1" parent="FX1jVykedZcyPQlozCbJ-10">
          <mxGeometry x="56" y="172" width="80" height="80" as="geometry" />
        </mxCell>
        <mxCell id="FX1jVykedZcyPQlozCbJ-23" value="" style="group" vertex="1" connectable="0" parent="1">
          <mxGeometry x="93" y="96" width="246" height="253" as="geometry" />
        </mxCell>
        <mxCell id="FX1jVykedZcyPQlozCbJ-1" value="US-EAST-2A" style="sketch=0;outlineConnect=0;html=1;whiteSpace=wrap;fontSize=12;fontStyle=0;shape=mxgraph.aws4.group;grIcon=mxgraph.aws4.group_availability_zone;strokeColor=#d79b00;fillColor=#ffe6cc;verticalAlign=top;align=left;spacingLeft=30;dashed=1;" vertex="1" parent="FX1jVykedZcyPQlozCbJ-23">
          <mxGeometry width="246" height="253" as="geometry" />
        </mxCell>
        <mxCell id="FX1jVykedZcyPQlozCbJ-2" value="Pulsar Broker" style="whiteSpace=wrap;html=1;aspect=fixed;fillColor=#dae8fc;strokeColor=#6c8ebf;" vertex="1" parent="FX1jVykedZcyPQlozCbJ-23">
          <mxGeometry x="22" y="30" width="80" height="80" as="geometry" />
        </mxCell>
        <mxCell id="FX1jVykedZcyPQlozCbJ-24" value="Pulsar Bookie" style="whiteSpace=wrap;html=1;aspect=fixed;fillColor=#dae8fc;strokeColor=#6c8ebf;" vertex="1" parent="FX1jVykedZcyPQlozCbJ-23">
          <mxGeometry x="22" y="138" width="80" height="80" as="geometry" />
        </mxCell>
      </root>
    </mxGraphModel>
  </diagram>
</mxfile>
